<svg width="19" height="18" viewBox="0 0 19 18" fill="none" xmlns="http://www.w3.org/2000/svg">
<g id="Component 3">
<path id="Vector" d="M10.0046 14.8027L10.0022 14.8049C9.72057 15.0658 9.29049 15.0656 9.00882 14.8009L9.00524 14.7976L8.92278 14.7211L8.92146 14.7198C6.93803 12.8887 5.36166 11.4293 4.28349 10.0656C3.21661 8.71615 2.71188 7.55037 2.75225 6.31501C2.78967 5.2391 3.33193 4.21641 4.18492 3.6238L4.18533 3.62351C5.79553 2.50326 7.81317 3.00325 8.92475 4.33084L9.49979 5.01764L10.0748 4.33084C11.188 3.00136 13.2048 2.49755 14.8127 3.6224L14.8147 3.6238C15.6678 4.21653 16.2101 5.2395 16.2474 6.31566L16.2474 6.31624C16.291 7.55052 15.7871 8.71568 14.7188 10.0677C13.6399 11.433 12.0627 12.8952 10.0801 14.7333L10.0796 14.7338L10.077 14.7362L10.0046 14.8027Z" fill="#CB1A1A" stroke="#FAFEFB" stroke-width="1.5"/>
</g>
</svg>
