<svg width="24" height="24" viewBox="0 0 24 24" fill="none" xmlns="http://www.w3.org/2000/svg">
<g id="Component 4" clip-path="url(#clip0_470_435)">
<path id="Vector" d="M20.5147 11.1637C20.7165 11.0062 20.8662 10.7864 20.9428 10.5352C21.0194 10.284 21.0191 10.014 20.9418 9.76304C20.8646 9.51207 20.7143 9.29272 20.5121 9.13575C20.3098 8.97878 20.0658 8.89206 19.8142 8.88775L14.9269 8.69429C14.9029 8.69255 14.8799 8.68357 14.8606 8.66843C14.8413 8.65329 14.8266 8.63263 14.8183 8.60894L13.1295 3.8294C13.0446 3.58623 12.8905 3.37626 12.688 3.22791C12.4855 3.07956 12.2444 3 11.9973 3C11.7502 3 11.5091 3.07956 11.3066 3.22791C11.104 3.37626 10.9499 3.58623 10.8651 3.8294L9.18169 8.62601C9.17337 8.6497 9.15869 8.67036 9.13942 8.6855C9.12015 8.70064 9.09711 8.70962 9.07308 8.71136L4.18583 8.90482C3.9342 8.90913 3.69016 8.99584 3.48793 9.15281C3.28571 9.30978 3.13543 9.52914 3.05819 9.78011C2.98094 10.0311 2.9806 10.3011 3.0572 10.5523C3.1338 10.8035 3.28351 11.0233 3.48533 11.1808L7.3191 14.3387C7.33829 14.3545 7.35263 14.3759 7.36035 14.4002C7.36807 14.4244 7.36884 14.4506 7.36255 14.4753L6.04299 19.3743C5.97461 19.6238 5.98123 19.8893 6.06196 20.1347C6.14269 20.38 6.2936 20.5934 6.49416 20.7457C6.69473 20.8981 6.93521 20.982 7.18289 20.986C7.43057 20.9901 7.67343 20.9141 7.87842 20.7683L11.9294 17.9234C11.9494 17.9089 11.973 17.9012 11.9973 17.9012C12.0215 17.9012 12.0452 17.9089 12.0652 17.9234L16.1161 20.7683C16.3184 20.919 16.5604 21 16.8085 21C17.0567 21 17.2986 20.919 17.5009 20.7683C17.7015 20.6174 17.8525 20.4051 17.9333 20.1606C18.014 19.916 18.0204 19.6513 17.9516 19.4028L16.6212 14.4867C16.6141 14.462 16.6145 14.4356 16.6223 14.4112C16.6301 14.3867 16.6448 14.3654 16.6646 14.3501L20.5147 11.1637Z" fill="#F4F4F4"/>
</g>
<defs>
<clipPath id="clip0_470_435">
<rect width="24" height="24" fill="white"/>
</clipPath>
</defs>
</svg>
