<svg width="25" height="24" viewBox="0 0 25 24" fill="none" xmlns="http://www.w3.org/2000/svg">
<g id="Component 2">
<path id="Vector" d="M3.75 17.46V20.5C3.75 20.78 3.97 21 4.25 21H7.29C7.42 21 7.55 20.95 7.64 20.85L18.56 9.94L14.81 6.19L3.9 17.1C3.8 17.2 3.75 17.32 3.75 17.46ZM21.46 7.04C21.5527 6.94749 21.6262 6.8376 21.6764 6.71663C21.7266 6.59565 21.7524 6.46597 21.7524 6.335C21.7524 6.20403 21.7266 6.07435 21.6764 5.95338C21.6262 5.83241 21.5527 5.72252 21.46 5.63L19.12 3.29C19.0275 3.1973 18.9176 3.12375 18.7966 3.07357C18.6757 3.02339 18.546 2.99756 18.415 2.99756C18.284 2.99756 18.1543 3.02339 18.0334 3.07357C17.9124 3.12375 17.8025 3.1973 17.71 3.29L15.88 5.12L19.63 8.87L21.46 7.04Z" fill="#FAFEFB"/>
</g>
</svg>
