<svg width="21" height="22" viewBox="0 0 21 22" fill="none" xmlns="http://www.w3.org/2000/svg">
<g id="Group">
<path id="Vector" fill-rule="evenodd" clip-rule="evenodd" d="M15.8946 0.597362C16.2776 0.214871 16.797 0 17.3386 0C17.8801 0 18.3995 0.214871 18.7825 0.597362L20.402 2.21529C20.7849 2.5979 21 3.11675 21 3.65776C21 4.19876 20.7849 4.71762 20.402 5.10022L18.7825 6.71815L14.2751 2.21529L15.8946 0.597362ZM12.8312 3.65776L7.72535 8.75842C7.34232 9.14095 7.12707 9.65982 7.12695 10.2009V11.8188C7.12695 12.3599 7.34213 12.8789 7.72514 13.2615C8.10814 13.6441 8.62762 13.8591 9.16927 13.8591H10.7888C11.3304 13.859 11.8498 13.6439 12.2328 13.2613L17.3386 8.16062L12.8312 3.65776Z" fill="white"/>
<path id="Vector_2" d="M4.06348 12.839H3.04232C2.50066 12.839 1.98119 13.0539 1.59818 13.4366C1.21517 13.8192 1 14.3381 1 14.8793C1 15.4204 1.21517 15.9393 1.59818 16.3219C1.98119 16.7046 2.50066 16.9195 3.04232 16.9195H17.3386C17.8802 16.9195 18.3997 17.1345 18.7827 17.5171C19.1657 17.8997 19.3809 18.4187 19.3809 18.9598C19.3809 19.5009 19.1657 20.0198 18.7827 20.4025C18.3997 20.7851 17.8802 21 17.3386 21H13.2539" stroke="white" stroke-width="2" stroke-linecap="round" stroke-linejoin="round"/>
</g>
</svg>
