<svg width="24" height="24" viewBox="0 0 24 24" fill="none" xmlns="http://www.w3.org/2000/svg">
<g id="Component 5">
<path id="Vector" fill-rule="evenodd" clip-rule="evenodd" d="M1.99997 9.42857C1.99997 9.08758 2.13543 8.76055 2.37655 8.51943C2.61766 8.27832 2.94469 8.14286 3.28568 8.14286H16.5388C16.8798 8.14286 17.2068 8.27832 17.448 8.51943C17.6891 8.76055 17.8245 9.08758 17.8245 9.42857C17.8245 9.76956 17.6891 10.0966 17.448 10.3377C17.2068 10.5788 16.8798 10.7143 16.5388 10.7143H3.28568C2.94469 10.7143 2.61766 10.5788 2.37655 10.3377C2.13543 10.0966 1.99997 9.76956 1.99997 9.42857ZM1.99997 4.28571C1.99997 3.94472 2.13543 3.6177 2.37655 3.37658C2.61766 3.13546 2.94469 3 3.28568 3H21.2857C21.6267 3 21.9537 3.13546 22.1948 3.37658C22.4359 3.6177 22.5714 3.94472 22.5714 4.28571C22.5714 4.62671 22.4359 4.95373 22.1948 5.19485C21.9537 5.43597 21.6267 5.57143 21.2857 5.57143H3.28568C2.94469 5.57143 2.61766 5.43597 2.37655 5.19485C2.13543 4.95373 1.99997 4.62671 1.99997 4.28571ZM1.99997 14.5714C1.99997 14.2304 2.13543 13.9034 2.37655 13.6623C2.61766 13.4212 2.94469 13.2857 3.28568 13.2857H21.2857C21.6267 13.2857 21.9537 13.4212 22.1948 13.6623C22.4359 13.9034 22.5714 14.2304 22.5714 14.5714C22.5714 14.9124 22.4359 15.2394 22.1948 15.4806C21.9537 15.7217 21.6267 15.8571 21.2857 15.8571H3.28568C2.94469 15.8571 2.61766 15.7217 2.37655 15.4806C2.13543 15.2394 1.99997 14.9124 1.99997 14.5714ZM1.99997 19.7143C1.99997 19.3733 2.13543 19.0463 2.37655 18.8051C2.61766 18.564 2.94469 18.4286 3.28568 18.4286H16.5388C16.8798 18.4286 17.2068 18.564 17.448 18.8051C17.6891 19.0463 17.8245 19.3733 17.8245 19.7143C17.8245 20.0553 17.6891 20.3823 17.448 20.6234C17.2068 20.8645 16.8798 21 16.5388 21H3.28568C2.94469 21 2.61766 20.8645 2.37655 20.6234C2.13543 20.3823 1.99997 20.0553 1.99997 19.7143Z" fill="#F4F4F4"/>
</g>
</svg>
