<svg width="24" height="24" viewBox="0 0 24 24" fill="none" xmlns="http://www.w3.org/2000/svg">
<g clip-path="url(#clip0_188_424)">
<path fill-rule="evenodd" clip-rule="evenodd" d="M3 4.42569C3 4.04758 3.14926 3.68494 3.41493 3.41758C3.68061 3.15021 4.04094 3 4.41667 3H18.5833C18.9591 3 19.3194 3.15021 19.5851 3.41758C19.8507 3.68494 20 4.04758 20 4.42569V6.40836C19.9999 6.91247 19.8008 7.3959 19.4466 7.75231L14.3333 12.8981V19.9543C14.3334 20.1326 14.2881 20.3078 14.2019 20.4635C14.1157 20.6192 13.9913 20.7501 13.8407 20.8438C13.69 20.9375 13.5181 20.9909 13.3411 20.9989C13.1642 21.007 12.9882 20.9693 12.8298 20.8896L9.31928 19.1236C9.12318 19.025 8.95826 18.8733 8.843 18.6856C8.72773 18.4979 8.66667 18.2817 8.66667 18.061V12.8981L3.55344 7.75231C3.19918 7.3959 3.00011 6.91247 3 6.40836V4.42569Z" fill="#FAFEFB"/>
</g>
<defs>
<clipPath id="clip0_188_424">
<rect width="24" height="24" fill="white"/>
</clipPath>
</defs>
</svg>
