<svg width="24" height="24" viewBox="0 0 24 24" fill="none" xmlns="http://www.w3.org/2000/svg">
<g id="ic:round-lock">
<path id="Vector" d="M17 9H16.1429V7.28571C16.1429 4.92 14.2229 3 11.8571 3C9.49143 3 7.57143 4.92 7.57143 7.28571V9H6.71429C5.77143 9 5 9.77143 5 10.7143V19.2857C5 20.2286 5.77143 21 6.71429 21H17C17.9429 21 18.7143 20.2286 18.7143 19.2857V10.7143C18.7143 9.77143 17.9429 9 17 9ZM11.8571 16.7143C10.9143 16.7143 10.1429 15.9429 10.1429 15C10.1429 14.0571 10.9143 13.2857 11.8571 13.2857C12.8 13.2857 13.5714 14.0571 13.5714 15C13.5714 15.9429 12.8 16.7143 11.8571 16.7143ZM9.28571 9V7.28571C9.28571 5.86286 10.4343 4.71429 11.8571 4.71429C13.28 4.71429 14.4286 5.86286 14.4286 7.28571V9H9.28571Z" fill="#FAFEFB"/>
</g>
</svg>
