<svg width="32" height="32" viewBox="0 0 32 32" fill="none" xmlns="http://www.w3.org/2000/svg">
<g id="ic:round-privacy-tip">
<path id="Vector" d="M7.98873 7.61169C7.18873 7.96378 6.6665 8.75599 6.6665 9.62522V14.7966C6.6665 20.9032 10.9332 26.6136 16.6665 28C22.3998 26.6136 26.6665 20.9032 26.6665 14.7966V9.62522C26.6665 8.75599 26.1443 7.96378 25.3443 7.61169L17.5665 4.1898C16.9887 3.93673 16.3332 3.93673 15.7665 4.1898L7.98873 7.61169ZM16.6665 10.3954C17.2776 10.3954 17.7776 10.8905 17.7776 11.4957C17.7776 12.1009 17.2776 12.596 16.6665 12.596C16.0554 12.596 15.5554 12.1009 15.5554 11.4957C15.5554 10.8905 16.0554 10.3954 16.6665 10.3954ZM16.6665 14.7966C17.2776 14.7966 17.7776 15.2917 17.7776 15.8968V20.298C17.7776 20.9032 17.2776 21.3983 16.6665 21.3983C16.0554 21.3983 15.5554 20.9032 15.5554 20.298V15.8968C15.5554 15.2917 16.0554 14.7966 16.6665 14.7966Z" fill="#F4F4F4"/>
</g>
</svg>
