<svg width="25" height="25" viewBox="0 0 25 25" fill="none" xmlns="http://www.w3.org/2000/svg">
<g id="icons">
<path id="Vector" d="M16.8125 5.5C17.2401 5.49995 17.6518 5.65143 17.9643 5.92382C18.2769 6.19621 18.467 6.56921 18.4963 6.96742L18.5 7.07454V17.9248C18.5001 18.3239 18.3378 18.7082 18.046 19C17.7542 19.2917 17.3546 19.4692 16.928 19.4965L16.8125 19.5H8.1875C7.75991 19.5 7.34823 19.3486 7.03569 19.0762C6.72314 18.8038 6.53302 18.4308 6.50375 18.0326L6.5 17.9262V7.07524C6.49995 6.67609 6.66222 6.2918 6.95403 6.00005C7.24583 5.70829 7.64541 5.53082 8.072 5.5035L8.1875 5.5H16.8125ZM12.686 13.1984H9.3125L9.236 13.2033C9.1008 13.22 8.97671 13.282 8.88683 13.3777C8.79695 13.4735 8.7474 13.5965 8.7474 13.7238C8.7474 13.8511 8.79695 13.9741 8.88683 14.0698C8.97671 14.1656 9.1008 14.2276 9.236 14.2443L9.3125 14.2485H12.686L12.7625 14.2443C12.8977 14.2276 13.0218 14.1656 13.1117 14.0698C13.2016 13.9741 13.2511 13.8511 13.2511 13.7238C13.2511 13.5965 13.2016 13.4735 13.1117 13.3777C13.0218 13.282 12.8977 13.22 12.7625 13.2033L12.686 13.1984ZM15.6875 11.1001H9.3125L9.236 11.1043C9.1008 11.1211 8.97671 11.1831 8.88683 11.2788C8.79695 11.3746 8.7474 11.4976 8.7474 11.6249C8.7474 11.7522 8.79695 11.8752 8.88683 11.9709C8.97671 12.0667 9.1008 12.1287 9.236 12.1454L9.3125 12.1503H15.6875L15.764 12.1454C15.8992 12.1287 16.0233 12.0667 16.1132 11.9709C16.2031 11.8752 16.2526 11.7522 16.2526 11.6249C16.2526 11.4976 16.2031 11.3746 16.1132 11.2788C16.0233 11.1831 15.8992 11.1211 15.764 11.1043L15.6875 11.1001ZM15.6875 9.00052H9.3125L9.236 9.00543C9.10137 9.02272 8.97799 9.08493 8.88868 9.18055C8.79937 9.27617 8.75017 9.39874 8.75017 9.5256C8.75017 9.65246 8.79937 9.77504 8.88868 9.87066C8.97799 9.96628 9.10137 10.0285 9.236 10.0458L9.3125 10.0507H15.6875L15.764 10.0458C15.8986 10.0285 16.022 9.96628 16.1113 9.87066C16.2006 9.77504 16.2498 9.65246 16.2498 9.5256C16.2498 9.39874 16.2006 9.27617 16.1113 9.18055C16.022 9.08493 15.8986 9.02272 15.764 9.00543L15.6875 9.00052Z" fill="#BCC5C9"/>
</g>
</svg>
