<svg width="24" height="24" viewBox="0 0 24 24" fill="none" xmlns="http://www.w3.org/2000/svg">
<path d="M16.1988 14.6083H15.3648L15.0692 14.3234C15.729 13.5574 16.2112 12.655 16.4813 11.6809C16.7515 10.7068 16.8028 9.6851 16.6317 8.68886C16.1355 5.7555 13.6861 3.41303 10.7299 3.05428C9.69059 2.92287 8.63498 3.03082 7.64385 3.36987C6.65272 3.70891 5.75233 4.27006 5.01158 5.01038C4.27083 5.75069 3.70935 6.65056 3.37011 7.64111C3.03086 8.63166 2.92285 9.68664 3.05433 10.7253C3.4133 13.6798 5.75714 16.1278 8.69222 16.6237C9.68904 16.7947 10.7114 16.7434 11.686 16.4734C12.6607 16.2034 13.5636 15.7215 14.3301 15.0621L14.6152 15.3575V16.1911L19.1023 20.6755C19.5351 21.1082 20.2425 21.1082 20.6754 20.6755C21.1082 20.2429 21.1082 19.536 20.6754 19.1033L16.1988 14.6083ZM9.86414 14.6083C7.23524 14.6083 5.11311 12.4875 5.11311 9.86009C5.11311 7.23273 7.23524 5.11185 9.86414 5.11185C12.493 5.11185 14.6152 7.23273 14.6152 9.86009C14.6152 12.4875 12.493 14.6083 9.86414 14.6083Z" fill="#FAFEFB"/>
</svg>
