<svg width="19" height="18" viewBox="0 0 19 18" fill="none" xmlns="http://www.w3.org/2000/svg">
<g id="Component 3">
<path id="Vector" d="M16.0763 4.89456L13.8554 2.67369C13.7215 2.53894 13.5621 2.43212 13.3865 2.35939C13.211 2.28666 13.0227 2.24949 12.8327 2.25001H4.92857C4.41708 2.25001 3.92654 2.45319 3.56487 2.81487C3.20319 3.17655 3 3.66709 3 4.17858V13.8214C3 14.3329 3.20319 14.8235 3.56487 15.1851C3.92654 15.5468 4.41708 15.75 4.92857 15.75H14.5714C15.0829 15.75 15.5735 15.5468 15.9351 15.1851C16.2968 14.8235 16.5 14.3329 16.5 13.8214V5.9173C16.5005 5.72728 16.4633 5.53904 16.3906 5.36349C16.3179 5.18793 16.2111 5.02855 16.0763 4.89456ZM5.65178 4.66072H10.9554C11.0193 4.66072 11.0806 4.68612 11.1258 4.73133C11.171 4.77654 11.1964 4.83785 11.1964 4.90179V6.34822C11.1964 6.41215 11.171 6.47347 11.1258 6.51868C11.0806 6.56389 11.0193 6.58929 10.9554 6.58929H5.65178C5.58785 6.58929 5.52653 6.56389 5.48132 6.51868C5.43611 6.47347 5.41071 6.41215 5.41071 6.34822V4.90179C5.41071 4.83785 5.43611 4.77654 5.48132 4.73133C5.52653 4.68612 5.58785 4.66072 5.65178 4.66072ZM9.863 14.3009C9.3771 14.3237 8.89567 14.199 8.48196 13.9431C8.06825 13.6873 7.74162 13.3122 7.54498 12.8673C7.34834 12.4224 7.2909 11.9284 7.38019 11.4503C7.46949 10.9721 7.70135 10.5321 8.04531 10.1882C8.38926 9.84421 8.82923 9.61235 9.30739 9.52305C9.78556 9.43376 10.2796 9.4912 10.7245 9.68784C11.1694 9.88448 11.5444 10.2111 11.8002 10.6248C12.0561 11.0385 12.1808 11.52 12.158 12.0059C12.1294 12.6053 11.8785 13.1726 11.4541 13.597C11.0298 14.0213 10.4625 14.2723 9.863 14.3009Z" fill="#FAFEFB"/>
<path id="Vector_2" d="M9.75 14.0625C10.682 14.0625 11.4375 13.307 11.4375 12.375C11.4375 11.443 10.682 10.6875 9.75 10.6875C8.81802 10.6875 8.0625 11.443 8.0625 12.375C8.0625 13.307 8.81802 14.0625 9.75 14.0625Z" fill="#FAFEFB"/>
</g>
</svg>
