<svg width="24" height="24" viewBox="0 0 24 24" fill="none" xmlns="http://www.w3.org/2000/svg">
<g id="Component 6">
<path id="Vector" d="M3 4.8C3 4.32261 3.18964 3.86477 3.52721 3.52721C3.86477 3.18964 4.32261 3 4.8 3H15.1032C15.5804 3.00042 16.038 3.19034 16.3752 3.528L20.4732 7.6248C20.8104 7.96224 20.9999 8.41974 21 8.8968V19.2C21 19.6774 20.8104 20.1352 20.4728 20.4728C20.1352 20.8104 19.6774 21 19.2 21H16.2V16.8C16.2 16.3226 16.0104 15.8648 15.6728 15.5272C15.3352 15.1896 14.8774 15 14.4 15H9.6C9.12261 15 8.66477 15.1896 8.32721 15.5272C7.98964 15.8648 7.8 16.3226 7.8 16.8V21H4.8C4.32261 21 3.86477 20.8104 3.52721 20.4728C3.18964 20.1352 3 19.6774 3 19.2V4.8Z" fill="#F4F4F4"/>
<path id="Vector_2" d="M9 17C9 16.4477 9.44772 16 10 16H14C14.5523 16 15 16.4477 15 17V20.375C15 20.5408 14.9368 20.6997 14.8243 20.8169C14.7117 20.9342 14.5591 21 14.4 21H9.6C9.44087 21 9.28826 20.9342 9.17574 20.8169C9.06321 20.6997 9 20.5408 9 20.375V17Z" fill="#F4F4F4"/>
</g>
</svg>
