<svg width="24" height="24" viewBox="0 0 24 24" fill="none" xmlns="http://www.w3.org/2000/svg">
<g id="icons">
<path id="Vector" d="M9.19244 16.1924L5.69244 12.6924C5.60092 12.5998 5.49192 12.5262 5.37176 12.476C5.25159 12.4258 5.12266 12.4 4.99244 12.4C4.86221 12.4 4.73328 12.4258 4.61312 12.476C4.49296 12.5262 4.38396 12.5998 4.29244 12.6924C4.1998 12.784 4.12625 12.893 4.07605 13.0131C4.02585 13.1333 4 13.2622 4 13.3924C4 13.5227 4.02585 13.6516 4.07605 13.7718C4.12625 13.8919 4.1998 14.0009 4.29244 14.0924L8.48244 18.2824C8.87244 18.6724 9.50244 18.6724 9.89244 18.2824L20.4924 7.69244C20.5851 7.60092 20.6586 7.49192 20.7088 7.37175C20.759 7.25159 20.7849 7.12266 20.7849 6.99244C20.7849 6.86221 20.759 6.73328 20.7088 6.61312C20.6586 6.49296 20.5851 6.38396 20.4924 6.29244C20.4009 6.1998 20.2919 6.12625 20.1718 6.07605C20.0516 6.02585 19.9227 6 19.7924 6C19.6622 6 19.5333 6.02585 19.4131 6.07605C19.293 6.12625 19.184 6.1998 19.0924 6.29244L9.19244 16.1924Z" fill="white"/>
</g>
</svg>
