<svg width="14" height="18" viewBox="0 0 14 18" fill="none" xmlns="http://www.w3.org/2000/svg">
<g id="&#240;&#159;&#166;&#134; emoji &#34;locked&#34;">
<path id="Vector" d="M6.88112 0.666748C4.90868 0.666748 3.30969 2.26573 3.30969 4.23818V6.02389C3.30969 7.99633 4.90868 9.59532 6.88112 9.59532C8.85357 9.59532 10.4526 7.99633 10.4526 6.02389V4.23818C10.4526 2.26573 8.85357 0.666748 6.88112 0.666748ZM6.88112 2.15484C8.03172 2.15484 8.96446 3.08758 8.96446 4.23818V6.02389C8.96446 7.17449 8.03172 8.10722 6.88112 8.10722C5.73053 8.10722 4.79779 7.17449 4.79779 6.02389V4.23818C4.79779 3.08758 5.73053 2.15484 6.88112 2.15484Z" fill="#D3D3D3"/>
<path id="Vector_2" d="M0.333496 7.80964C0.333496 6.82339 1.13299 6.02393 2.11921 6.02393H11.643C12.6293 6.02393 13.4287 6.82339 13.4287 7.80964V15.5477C13.4287 16.534 12.6293 17.3334 11.643 17.3334H2.11921C1.13299 17.3334 0.333496 16.534 0.333496 15.5477V7.80964Z" fill="#F9C23C"/>
<path id="Vector_3" d="M7.77402 11.6787C8.13545 11.4072 8.36926 10.9749 8.36926 10.4881C8.36926 9.66625 7.70301 9 6.88116 9C6.05932 9 5.39307 9.66625 5.39307 10.4881C5.39307 10.9749 5.62688 11.4072 5.9883 11.6787V13.7619C5.9883 14.255 6.38807 14.6548 6.88116 14.6548C7.37426 14.6548 7.77402 14.255 7.77402 13.7619V11.6787Z" fill="#433B6B"/>
</g>
</svg>
