<svg width="24" height="24" viewBox="0 0 24 24" fill="none" xmlns="http://www.w3.org/2000/svg">
<g id="icons">
<path id="SF Symbol / chevron.left" d="M7 12C7 12.2592 7.09202 12.4873 7.2863 12.6843L15.3947 20.72C15.5685 20.9067 15.7935 21 16.0593 21C16.591 21 17 20.5956 17 20.0565C17 19.7869 16.8875 19.5588 16.7239 19.3825L9.28016 12L16.7239 4.61751C16.8875 4.44124 17 4.20276 17 3.94355C17 3.40438 16.591 3 16.0593 3C15.7935 3 15.5685 3.09332 15.3947 3.26959L7.2863 11.3157C7.09202 11.5023 7 11.7408 7 12Z" fill="#F2F2F2"/>
</g>
</svg>
