<svg width="20" height="20" viewBox="0 0 20 20" fill="none" xmlns="http://www.w3.org/2000/svg">
<g id="jam:crown-f">
<path id="Vector" d="M2.73361 4.1924L6.13249 7.18306L9.16066 3.45457C9.24546 3.35033 9.35267 3.26657 9.47433 3.20952C9.59598 3.15246 9.72894 3.12359 9.8633 3.12505C9.99766 3.12651 10.13 3.15826 10.2504 3.21795C10.3707 3.27763 10.4761 3.3637 10.5586 3.46975L13.4483 7.18217L16.9571 4.14863C17.0949 4.02975 17.2657 3.95579 17.4467 3.93665C17.6277 3.9175 17.8102 3.9541 17.9698 4.04153C18.1294 4.12896 18.2585 4.26306 18.3398 4.42587C18.4211 4.58869 18.4507 4.77245 18.4247 4.95257L17.0848 14.1952H2.62016L1.25972 4.99456C1.2327 4.81343 1.26199 4.62838 1.34364 4.46446C1.42529 4.30055 1.55535 4.16569 1.7162 4.07814C1.87705 3.9906 2.06091 3.95462 2.2429 3.97505C2.42488 3.99549 2.59618 4.07137 2.73361 4.1924ZM2.68984 15.0885H16.9821V15.9817C16.9821 16.2186 16.888 16.4458 16.7205 16.6134C16.553 16.7809 16.3257 16.875 16.0888 16.875H3.58311C3.3462 16.875 3.11899 16.7809 2.95147 16.6134C2.78395 16.4458 2.68984 16.2186 2.68984 15.9817V15.0885Z" fill="#FFC700"/>
</g>
</svg>
