<svg width="25" height="24" viewBox="0 0 25 24" fill="none" xmlns="http://www.w3.org/2000/svg">
<path d="M20.592 14.326L20.785 12.432C20.888 11.421 20.955 10.754 20.902 10.333H20.922C21.793 10.333 22.5 9.587 22.5 8.667C22.5 7.747 21.793 7 20.921 7C20.049 7 19.342 7.746 19.342 8.667C19.342 9.083 19.487 9.464 19.726 9.756C19.383 9.979 18.934 10.451 18.258 11.161C17.738 11.708 17.478 11.981 17.188 12.024C17.0269 12.0473 16.8625 12.0229 16.715 11.954C16.447 11.83 16.268 11.492 15.911 10.815L14.027 7.25C13.807 6.833 13.622 6.484 13.455 6.203C14.138 5.835 14.605 5.086 14.605 4.223C14.605 2.994 13.663 2 12.5 2C11.337 2 10.395 2.995 10.395 4.222C10.395 5.086 10.862 5.835 11.545 6.202C11.378 6.484 11.194 6.833 10.973 7.25L9.09 10.816C8.732 11.492 8.553 11.83 8.285 11.955C8.13753 12.0239 7.97312 12.0483 7.812 12.025C7.522 11.982 7.262 11.708 6.742 11.161C6.066 10.451 5.617 9.979 5.274 9.756C5.514 9.464 5.658 9.083 5.658 8.666C5.658 7.747 4.95 7 4.078 7C3.208 7 2.5 7.746 2.5 8.667C2.5 9.587 3.207 10.333 4.079 10.333H4.098C4.044 10.753 4.112 11.421 4.215 12.432L4.408 14.326C4.515 15.377 4.604 16.377 4.714 17.278H20.286C20.396 16.378 20.485 15.377 20.592 14.326ZM11.355 22H13.645C16.63 22 18.123 22 19.119 21.06C19.553 20.648 19.829 19.908 20.027 18.944H4.973C5.171 19.908 5.446 20.648 5.881 21.059C6.877 22 8.37 22 11.355 22Z" fill="#FAFF00"/>
</svg>
