<svg width="25" height="25" viewBox="0 0 25 25" fill="none" xmlns="http://www.w3.org/2000/svg">
<path d="M5.5 6.5C5.5 6.23478 5.60536 5.98043 5.79289 5.79289C5.98043 5.60536 6.23478 5.5 6.5 5.5H18.5C18.7652 5.5 19.0196 5.60536 19.2071 5.79289C19.3946 5.98043 19.5 6.23478 19.5 6.5V8.5C19.5 8.76522 19.3946 9.01957 19.2071 9.20711C19.0196 9.39464 18.7652 9.5 18.5 9.5H6.5C6.23478 9.5 5.98043 9.39464 5.79289 9.20711C5.60536 9.01957 5.5 8.76522 5.5 8.5V6.5ZM5.5 12.5C5.5 12.2348 5.60536 11.9804 5.79289 11.7929C5.98043 11.6054 6.23478 11.5 6.5 11.5H12.5C12.7652 11.5 13.0196 11.6054 13.2071 11.7929C13.3946 11.9804 13.5 12.2348 13.5 12.5V18.5C13.5 18.7652 13.3946 19.0196 13.2071 19.2071C13.0196 19.3946 12.7652 19.5 12.5 19.5H6.5C6.23478 19.5 5.98043 19.3946 5.79289 19.2071C5.60536 19.0196 5.5 18.7652 5.5 18.5V12.5ZM16.5 11.5C16.2348 11.5 15.9804 11.6054 15.7929 11.7929C15.6054 11.9804 15.5 12.2348 15.5 12.5V18.5C15.5 18.7652 15.6054 19.0196 15.7929 19.2071C15.9804 19.3946 16.2348 19.5 16.5 19.5H18.5C18.7652 19.5 19.0196 19.3946 19.2071 19.2071C19.3946 19.0196 19.5 18.7652 19.5 18.5V12.5C19.5 12.2348 19.3946 11.9804 19.2071 11.7929C19.0196 11.6054 18.7652 11.5 18.5 11.5H16.5Z" fill="#3D3F44"/>
</svg>
